<svg width="27" height="27" viewBox="0 0 27 27" fill="none" xmlns="http://www.w3.org/2000/svg">
<path d="M23.9269 10.3276C23.6007 9.81009 23.2519 9.32634 22.8919 8.87634C22.4757 8.34759 21.6882 8.30259 21.2157 8.77509L17.8407 12.1501C18.0882 12.8926 18.1332 13.7476 17.9082 14.6363C17.5144 16.2226 16.2319 17.5051 14.6457 17.8988C13.7569 18.1238 12.9019 18.0788 12.1594 17.8313C12.1594 17.8313 10.5507 19.4401 9.39192 20.5988C8.82942 21.1613 9.00942 22.1513 9.76317 22.4438C10.9669 22.9051 12.2157 23.1413 13.4982 23.1413C15.5007 23.1413 17.4469 22.5563 19.2244 21.4651C21.0357 20.3401 22.6669 18.6863 23.9832 16.5826C25.0519 14.8838 24.9957 12.0263 23.9269 10.3276Z" fill="#757575"/>
<path d="M15.7712 11.2275L11.2262 15.7725C10.6525 15.1875 10.2812 14.3775 10.2812 13.5C10.2812 11.7337 11.7212 10.2825 13.4987 10.2825C14.3762 10.2825 15.1862 10.6537 15.7712 11.2275Z" fill="#757575"/>
<path d="M20.5312 6.46864L16.7175 10.2824C15.8962 9.44989 14.76 8.95489 13.5 8.95489C10.98 8.95489 8.955 10.9911 8.955 13.4999C8.955 14.7599 9.46125 15.8961 10.2825 16.7174L6.48 20.5311H6.46875C5.22 19.5186 4.0725 18.2249 3.09375 16.6949C1.96875 14.9286 1.96875 12.0599 3.09375 10.2936C4.39875 8.24614 5.99625 6.63739 7.77375 5.53489C9.55125 4.45489 11.4975 3.85864 13.5 3.85864C16.0087 3.85864 18.4387 4.78114 20.5312 6.46864Z" fill="#757575"/>
<path d="M16.7212 13.5001C16.7212 15.2663 15.2813 16.7176 13.5038 16.7176C13.4363 16.7176 13.38 16.7176 13.3125 16.6951L16.6988 13.3088C16.7213 13.3763 16.7212 13.4326 16.7212 13.5001Z" fill="#757575"/>
<path d="M24.4934 2.50874C24.1559 2.17124 23.6047 2.17124 23.2672 2.50874L2.51094 23.2762C2.17344 23.6137 2.17344 24.165 2.51094 24.5025C2.67969 24.66 2.89344 24.75 3.11844 24.75C3.34344 24.75 3.55719 24.66 3.72594 24.4912L24.4934 3.72374C24.8422 3.38624 24.8422 2.84624 24.4934 2.50874Z" fill="#757575"/>
</svg>
