<svg width="114" height="30" viewBox="0 0 114 30" fill="none" xmlns="http://www.w3.org/2000/svg">
<path d="M42.7061 7.09375H36.4602C36.2534 7.09361 36.0534 7.17014 35.8962 7.30953C35.739 7.44893 35.6349 7.64203 35.6027 7.85404L33.0766 24.4789C33.0649 24.5561 33.0696 24.6349 33.0901 24.71C33.1107 24.7852 33.1467 24.8547 33.1956 24.914C33.2446 24.9733 33.3053 25.0209 33.3737 25.0535C33.4421 25.086 33.5164 25.1028 33.5916 25.1027H36.5735C36.7804 25.1028 36.9805 25.0262 37.1377 24.8866C37.295 24.747 37.399 24.5537 37.431 24.3415L38.1123 19.8575C38.1443 19.6455 38.2482 19.4523 38.4053 19.3127C38.5623 19.1731 38.7622 19.0964 38.969 19.0963H40.9462C45.0605 19.0963 47.435 17.0296 48.0551 12.9343C48.3346 11.1426 48.067 9.73485 47.2587 8.74894C46.371 7.66634 44.7965 7.09375 42.7061 7.09375ZM43.4266 13.1656C43.0851 15.492 41.3727 15.492 39.7169 15.492H38.7744L39.4357 11.1474C39.455 11.0202 39.5174 10.9045 39.6117 10.8209C39.7059 10.7373 39.8259 10.6914 39.9498 10.6914H40.3818C41.5097 10.6914 42.5736 10.6914 43.1234 11.3588C43.4513 11.7569 43.5518 12.3485 43.4266 13.1656ZM61.3761 13.0907H58.3851C58.2611 13.0907 58.1412 13.1367 58.047 13.2203C57.9527 13.3039 57.8903 13.4196 57.8709 13.5467L57.7385 14.4151L57.5294 14.1003C56.8819 13.1249 55.438 12.7988 53.9968 12.7988C50.6917 12.7988 47.8688 15.3972 47.319 19.0422C47.0331 20.8605 47.4396 22.5991 48.4332 23.8116C49.3446 24.9264 50.6488 25.3909 52.2004 25.3909C54.8635 25.3909 56.3403 23.6134 56.3403 23.6134L56.2069 24.4761C56.1951 24.5532 56.1994 24.6321 56.2198 24.7073C56.2401 24.7825 56.2759 24.8523 56.3246 24.9117C56.3734 24.9712 56.434 25.019 56.5023 25.0518C56.5706 25.0846 56.645 25.1017 56.7202 25.1018H59.4143C59.6213 25.1019 59.8214 25.0252 59.9786 24.8856C60.1359 24.7461 60.2399 24.5527 60.2719 24.3405L61.8884 13.7145C61.9003 13.6376 61.896 13.5588 61.8757 13.4838C61.8554 13.4087 61.8197 13.3392 61.771 13.2799C61.7222 13.2205 61.6617 13.1729 61.5935 13.1403C61.5253 13.1076 61.4511 13.0907 61.3761 13.0907ZM57.207 19.1332C56.9184 20.9069 55.5622 22.0976 53.8324 22.0976C52.9639 22.0976 52.2698 21.8085 51.8242 21.2605C51.3821 20.7164 51.2141 19.9419 51.3547 19.0792C51.6242 17.3207 53.0032 16.0911 54.7064 16.0911C55.5558 16.0911 56.2462 16.3841 56.701 16.9367C57.1567 17.4951 57.3376 18.2744 57.207 19.1332ZM77.3053 13.0907H74.2997C74.158 13.091 74.0184 13.1271 73.8932 13.196C73.7679 13.2649 73.6608 13.3644 73.581 13.4861L69.4357 19.8243L67.6785 13.7335C67.6246 13.5477 67.5145 13.3849 67.3645 13.2691C67.2145 13.1534 67.0325 13.0908 66.8456 13.0907H63.8921C63.8092 13.0905 63.7274 13.1108 63.6536 13.15C63.5798 13.1892 63.5161 13.2462 63.4678 13.3161C63.4194 13.386 63.3879 13.4669 63.3758 13.552C63.3636 13.6372 63.3713 13.7241 63.398 13.8055L66.7086 23.8902L63.5962 28.451C63.5409 28.5319 63.5081 28.627 63.5014 28.7259C63.4947 28.8249 63.5143 28.9238 63.5582 29.0119C63.602 29.1 63.6684 29.1739 63.75 29.2255C63.8316 29.277 63.9253 29.3043 64.0209 29.3042H67.0228C67.163 29.3044 67.3011 29.2693 67.4253 29.202C67.5495 29.1346 67.6562 29.037 67.7361 28.9174L77.7327 13.9392C77.7869 13.8582 77.8187 13.7633 77.8246 13.6648C77.8305 13.5664 77.8104 13.4681 77.7664 13.3807C77.7223 13.2933 77.6561 13.2201 77.5748 13.1689C77.4935 13.1178 77.4003 13.0908 77.3053 13.0907Z" fill="#022273"/>
<path d="M87.2502 7.0947H81.0034C80.7968 7.09479 80.597 7.17141 80.44 7.31079C80.2829 7.45016 80.1789 7.64314 80.1468 7.85499L77.6207 24.4799C77.6089 24.5569 77.6134 24.6356 77.6338 24.7107C77.6542 24.7857 77.69 24.8553 77.7388 24.9146C77.7876 24.9739 77.8481 25.0215 77.9164 25.0541C77.9846 25.0868 78.0588 25.1037 78.1339 25.1037H81.3395C81.4841 25.1035 81.6239 25.0497 81.7337 24.952C81.8436 24.8543 81.9162 24.7192 81.9386 24.5709L82.6555 19.8584C82.6875 19.6464 82.7914 19.4532 82.9484 19.3137C83.1055 19.1741 83.3054 19.0973 83.5122 19.0972H85.4885C89.6037 19.0972 91.9773 17.0306 92.5983 12.9353C92.8787 11.1436 92.6092 9.7358 91.801 8.74989C90.9142 7.66728 89.3406 7.0947 87.2502 7.0947ZM87.9707 13.1666C87.6301 15.4929 85.9177 15.4929 84.261 15.4929H83.3195L83.9816 11.1483C84.0006 11.0212 84.0628 10.9053 84.1569 10.8217C84.251 10.7381 84.3709 10.6922 84.4948 10.6923H84.9268C86.0538 10.6923 87.1187 10.6923 87.6685 11.3597C87.9963 11.7579 88.0959 12.3494 87.9707 13.1666ZM105.919 13.0917H102.93C102.806 13.0913 102.686 13.1372 102.592 13.2208C102.498 13.3045 102.436 13.4205 102.417 13.5477L102.284 14.416L102.074 14.1013C101.427 13.1258 99.9839 12.7997 98.5428 12.7997C95.2376 12.7997 92.4156 15.3981 91.8658 19.0432C91.5809 20.8614 91.9855 22.6 92.9791 23.8125C93.8924 24.9274 95.1947 25.3919 96.7464 25.3919C99.4095 25.3919 100.886 23.6144 100.886 23.6144L100.753 24.4771C100.741 24.5543 100.745 24.6334 100.766 24.7087C100.786 24.7841 100.822 24.8539 100.871 24.9134C100.92 24.9729 100.981 25.0207 101.05 25.0534C101.118 25.086 101.193 25.1029 101.268 25.1027H103.961C104.168 25.1026 104.368 25.0258 104.525 24.8863C104.682 24.7467 104.786 24.5535 104.818 24.3415L106.435 13.7155C106.447 13.6383 106.442 13.5594 106.421 13.4843C106.401 13.4092 106.365 13.3396 106.315 13.2804C106.266 13.2211 106.206 13.1735 106.137 13.141C106.069 13.1084 105.994 13.0916 105.919 13.0917ZM101.75 19.1342C101.463 20.9079 100.105 22.0985 98.3756 22.0985C97.5089 22.0985 96.813 21.8094 96.3674 21.2615C95.9253 20.7173 95.7591 19.9428 95.8979 19.0801C96.1692 17.3216 97.5464 16.0921 99.2496 16.0921C100.099 16.0921 100.789 16.385 101.244 16.9377C101.702 17.4961 101.883 18.2753 101.75 19.1342ZM109.445 7.55068L106.882 24.4799C106.87 24.5569 106.875 24.6356 106.895 24.7107C106.915 24.7857 106.951 24.8553 107 24.9146C107.049 24.9739 107.109 25.0215 107.178 25.0541C107.246 25.0868 107.32 25.1037 107.395 25.1037H109.972C110.401 25.1037 110.764 24.7814 110.83 24.3424L113.358 7.71848C113.37 7.64142 113.365 7.56263 113.345 7.48754C113.324 7.41245 113.289 7.34283 113.24 7.28347C113.191 7.22411 113.13 7.17642 113.062 7.14367C112.994 7.11092 112.92 7.09389 112.845 7.09375H109.959C109.835 7.09421 109.715 7.14044 109.621 7.22416C109.527 7.30789 109.465 7.42364 109.445 7.55068Z" fill="#167FC4"/>
<path d="M7.13657 28.3335L7.61421 25.1843L6.55025 25.1587H1.46973L5.00043 1.92057C5.01094 1.84957 5.04568 1.78485 5.09832 1.73821C5.15096 1.69158 5.21799 1.66613 5.2872 1.66651H13.8537C16.6976 1.66651 18.6602 2.28081 19.6849 3.49329C20.1653 4.06208 20.4712 4.65647 20.6192 5.31058C20.7744 5.99693 20.7772 6.81694 20.6256 7.81707L20.6146 7.89007V8.53091L21.095 8.81341C21.4617 9.00627 21.7914 9.26715 22.0676 9.58318C22.4786 10.0695 22.7444 10.6876 22.8567 11.4204C22.9727 12.174 22.9343 13.0708 22.7444 14.0861C22.5252 15.2541 22.1708 16.2713 21.6923 17.1036C21.27 17.8492 20.7023 18.495 20.0255 18.9996C19.3899 19.4679 18.6346 19.8234 17.7807 20.0509C16.9533 20.2746 16.0099 20.3874 14.9752 20.3874H14.3085C13.8318 20.3874 13.3687 20.5656 13.0052 20.8851C12.6423 21.208 12.4015 21.6541 12.3258 22.1441L12.2755 22.4275L11.4317 27.978L11.3933 28.1818C11.3833 28.2463 11.3659 28.2785 11.3404 28.3003C11.3156 28.3213 11.2847 28.333 11.2527 28.3335H7.13657Z" fill="#022273"/>
<path d="M21.5498 7.96533C21.5242 8.13502 21.495 8.3085 21.4621 8.48673C20.3324 14.5074 16.4674 16.5873 11.5312 16.5873H9.01786C8.41419 16.5873 7.9055 17.0423 7.81143 17.6604L6.52464 26.1317L6.16024 28.5329C6.14572 28.6282 6.15127 28.7256 6.17649 28.8184C6.2017 28.9112 6.246 28.9972 6.30632 29.0706C6.36665 29.1439 6.44156 29.2028 6.52592 29.2432C6.61027 29.2836 6.70206 29.3046 6.79496 29.3046H11.2526C11.7805 29.3046 12.2289 28.9064 12.312 28.3661L12.3559 28.131L13.1952 22.6023L13.249 22.2989C13.3312 21.7567 13.7806 21.3585 14.3084 21.3585H14.9751C19.294 21.3585 22.6749 19.5384 23.6631 14.2714C24.0759 12.0711 23.8622 10.2339 22.7699 8.94176C22.4237 8.54205 22.0102 8.21117 21.5498 7.96533Z" fill="#167FC4"/>
<path d="M20.3661 7.47447C20.0054 7.36615 19.6384 7.28161 19.2675 7.22135C18.5344 7.10441 17.7935 7.0483 17.0519 7.05356H10.3375C10.082 7.05336 9.83481 7.14805 9.64068 7.32052C9.44655 7.493 9.31827 7.73187 9.27902 7.99397L7.85067 17.3848L7.80957 17.6587C7.85407 17.3598 8.00017 17.0872 8.22146 16.8904C8.44274 16.6936 8.72458 16.5855 9.016 16.5856H11.5293C16.4655 16.5856 20.3305 14.5048 21.4602 8.48503C21.494 8.3068 21.5223 8.13332 21.5479 7.96363C21.2498 7.80136 20.9391 7.66532 20.6191 7.55694C20.5352 7.52805 20.4509 7.50055 20.3661 7.47447Z" fill="#022273"/>
<path d="M9.28205 7.99438C9.32096 7.73221 9.44917 7.49322 9.6434 7.32084C9.83763 7.14845 10.085 7.0541 10.3405 7.05492H17.0549C17.8503 7.05492 18.5928 7.10896 19.2705 7.22272C19.729 7.29752 20.1813 7.40941 20.623 7.55736C20.9564 7.67206 21.266 7.80763 21.5518 7.96404C21.8879 5.73911 21.5491 4.22422 20.3902 2.85248C19.1125 1.34233 16.8065 0.695801 13.8557 0.695801H5.28923C4.68647 0.695801 4.1723 1.15084 4.07915 1.76987L0.511003 25.2469C0.494384 25.3559 0.500707 25.4673 0.529538 25.5735C0.55837 25.6797 0.609025 25.7782 0.67802 25.8622C0.747014 25.9461 0.832711 26.0136 0.929215 26.0599C1.02572 26.1062 1.13074 26.1302 1.23705 26.1304H6.5258L7.85369 17.3852L9.28205 7.99438Z" fill="#022273"/>
</svg>
