<svg width="63" height="63" viewBox="0 0 63 63" fill="none" xmlns="http://www.w3.org/2000/svg">
<path d="M31.5 47.125C32.3854 47.125 33.1281 46.825 33.7281 46.225C34.326 45.6271 34.625 44.8854 34.625 44V34.625H44.0781C44.9635 34.625 45.6927 34.325 46.2656 33.725C46.8385 33.1271 47.125 32.3854 47.125 31.5C47.125 30.6146 46.825 29.8719 46.225 29.2719C45.6271 28.674 44.8854 28.375 44 28.375H34.625V18.9219C34.625 18.0365 34.326 17.3073 33.7281 16.7344C33.1281 16.1615 32.3854 15.875 31.5 15.875C30.6146 15.875 29.8729 16.174 29.275 16.7719C28.675 17.3719 28.375 18.1146 28.375 19V28.375H18.9219C18.0365 28.375 17.3073 28.674 16.7344 29.2719C16.1615 29.8719 15.875 30.6146 15.875 31.5C15.875 32.3854 16.174 33.1271 16.7719 33.725C17.3719 34.325 18.1146 34.625 19 34.625H28.375V44.0781C28.375 44.9635 28.675 45.6927 29.275 46.2656C29.8729 46.8385 30.6146 47.125 31.5 47.125ZM31.5 62.75C27.1771 62.75 23.1146 61.9292 19.3125 60.2875C15.5104 58.6479 12.2031 56.4219 9.39062 53.6094C6.57812 50.7969 4.35208 47.4896 2.7125 43.6875C1.07083 39.8854 0.25 35.8229 0.25 31.5C0.25 27.1771 1.07083 23.1146 2.7125 19.3125C4.35208 15.5104 6.57812 12.2031 9.39062 9.39062C12.2031 6.57812 15.5104 4.35104 19.3125 2.70937C23.1146 1.06979 27.1771 0.25 31.5 0.25C35.8229 0.25 39.8854 1.06979 43.6875 2.70937C47.4896 4.35104 50.7969 6.57812 53.6094 9.39062C56.4219 12.2031 58.6479 15.5104 60.2875 19.3125C61.9292 23.1146 62.75 27.1771 62.75 31.5C62.75 35.8229 61.9292 39.8854 60.2875 43.6875C58.6479 47.4896 56.4219 50.7969 53.6094 53.6094C50.7969 56.4219 47.4896 58.6479 43.6875 60.2875C39.8854 61.9292 35.8229 62.75 31.5 62.75Z" fill="#1F1F1F"/>
</svg>
