<svg width="124" height="120" viewBox="0 0 124 120" fill="none" xmlns="http://www.w3.org/2000/svg">
<g opacity="0.24" filter="url(#filter0_f_495_7118)">
<rect x="32.0312" y="32.8955" width="59.3731" height="54.4253" rx="27.2127" fill="#CACACA"/>
</g>
<rect x="34.0312" y="25" width="55.3731" height="55.3731" rx="27.6865" fill="#1F1F1F" stroke="white" stroke-width="4"/>
<path d="M60.0968 58.0192C60.0968 57.3472 60.1481 56.7172 60.2508 56.1292C60.3628 55.5412 60.5681 54.9812 60.8668 54.4492C61.1188 53.9452 61.4128 53.5392 61.7488 53.2312C62.0941 52.9138 62.4674 52.6058 62.8688 52.3072C63.2794 51.9992 63.7088 51.6072 64.1568 51.1312C64.5301 50.7205 64.7774 50.3052 64.8988 49.8852C65.0294 49.4652 65.0948 49.0125 65.0948 48.5272C65.0948 48.1725 65.0528 47.8412 64.9688 47.5332C64.8848 47.2252 64.7448 46.9592 64.5488 46.7352C64.2501 46.3618 63.8721 46.1005 63.4148 45.9512C62.9574 45.7925 62.4814 45.7132 61.9868 45.7132C61.5388 45.7132 61.1094 45.7738 60.6988 45.8952C60.2974 46.0165 59.9614 46.2032 59.6908 46.4552C59.4014 46.6978 59.1868 47.0012 59.0468 47.3652C58.9161 47.7198 58.8554 48.1072 58.8648 48.5272H55.7848C55.8594 47.6498 56.0834 46.8285 56.4568 46.0632C56.8301 45.2978 57.3341 44.6772 57.9688 44.2012C58.5101 43.7718 59.1261 43.4545 59.8168 43.2492C60.5074 43.0345 61.1981 42.9272 61.8888 42.9272C62.8781 42.9272 63.8114 43.0812 64.6888 43.3892C65.5754 43.6972 66.3128 44.1965 66.9008 44.8872C67.3301 45.3725 67.6521 45.9278 67.8668 46.5532C68.0908 47.1692 68.2028 47.8085 68.2028 48.4712C68.2028 49.3578 68.0114 50.1792 67.6288 50.9352C67.2554 51.6912 66.7748 52.3818 66.1868 53.0072C65.8788 53.3338 65.5661 53.6325 65.2488 53.9032C64.9314 54.1645 64.6374 54.4212 64.3668 54.6732C64.0961 54.9252 63.8721 55.2005 63.6948 55.4992C63.4428 55.9285 63.2981 56.3158 63.2608 56.6612C63.2234 56.9972 63.2048 57.4498 63.2048 58.0192H60.0968ZM60.1108 63.4932V60.1052H63.2048V63.4932H60.1108Z" fill="white"/>
<defs>
<filter id="filter0_f_495_7118" x="0.03125" y="0.895508" width="123.375" height="118.425" filterUnits="userSpaceOnUse" color-interpolation-filters="sRGB">
<feFlood flood-opacity="0" result="BackgroundImageFix"/>
<feBlend mode="normal" in="SourceGraphic" in2="BackgroundImageFix" result="shape"/>
<feGaussianBlur stdDeviation="16" result="effect1_foregroundBlur_495_7118"/>
</filter>
</defs>
</svg>
