<svg width="63" height="21" viewBox="0 0 63 21" fill="none" xmlns="http://www.w3.org/2000/svg">
<path d="M27.2997 20.6972H22.1963L25.3883 0.368652H30.4915L27.2997 20.6972Z" fill="#00579F"/>
<path d="M45.8001 0.865468C44.7935 0.454148 43.1969 0 41.2227 0C36.1829 0 32.6339 2.768 32.6122 6.72541C32.5703 9.64517 35.1532 11.2669 37.0849 12.2404C39.0594 13.2352 39.7305 13.8846 39.7305 14.7713C39.7104 16.1332 38.1351 16.7609 36.6657 16.7609C34.6282 16.7609 33.5365 16.4373 31.8774 15.6796L31.2054 15.3548L30.4912 19.9181C31.6882 20.4798 33.8934 20.9782 36.1829 21C41.5378 21 45.024 18.2748 45.0653 14.0576C45.0857 11.7435 43.7219 9.97026 40.7815 8.5213C38.9966 7.59116 37.9034 6.96398 37.9034 6.01228C37.9244 5.1471 38.828 4.26094 40.8429 4.26094C42.502 4.21754 43.721 4.62828 44.6445 5.03931L45.1061 5.25518L45.8001 0.865468Z" fill="#00579F"/>
<path d="M52.5834 13.4955C53.0036 12.3277 54.6209 7.80776 54.6209 7.80776C54.5997 7.85116 55.0403 6.61835 55.2923 5.86154L55.649 7.61317C55.649 7.61317 56.6154 12.4792 56.8253 13.4955C56.0277 13.4955 53.5914 13.4955 52.5834 13.4955ZM58.8829 0.368652H54.9354C53.7181 0.368652 52.7932 0.735994 52.268 2.05532L44.6875 20.6969H50.0424C50.0424 20.6969 50.924 18.1879 51.1135 17.6475C51.7009 17.6475 56.9101 17.6475 57.6659 17.6475C57.8124 18.3612 58.2748 20.6969 58.2748 20.6969H63.0001L58.8829 0.368652Z" fill="#00579F"/>
<path d="M17.933 0.368652L12.935 14.2308L12.3889 11.4194C11.4648 8.17539 8.56693 4.65086 5.33301 2.89837L9.91095 20.6756H15.3077L23.3294 0.368652H17.933Z" fill="#00579F"/>
<path d="M8.29494 0.368652H0.0840012L0 0.779397C6.40505 2.46635 10.647 6.5327 12.3898 11.4202L10.6048 2.07745C10.311 0.779109 9.40789 0.41148 8.29494 0.368652Z" fill="#F4A622"/>
</svg>
